<svg xmlns="http://www.w3.org/2000/svg" style="position:absolute;width:0;height:0;overflow:hidden" aria-hidden="true">
  <symbol id="icon-heart-fill" viewBox="0 0 20 20"><path d="M10 17.5s-6.5-3.7-6.5-9.2C3.5 5.6 5.6 4 7.6 4c1.4 0 2.3.7 2.4 1.7C10.1 4.7 11 4 12.4 4c2 0 4.1 1.6 4.1 4.3 0 5.5-6.5 9.2-6.5 9.2z"/></symbol>
  <symbol id="icon-pin" viewBox="0 0 100 100"><path d="M50 8a30 30 0 0 0-30 30c0 22.5 30 54 30 54s30-31.5 30-54A30 30 0 0 0 50 8zm0 42a12 12 0 1 1 0-24 12 12 0 0 1 0 24z"/></symbol>
  <symbol id="icon-star-fill" viewBox="0 0 20 20"><path d="M10 1.5l2.7 5.5 6.1.9-4.4 4.3 1 6L10 15.4l-5.4 2.8 1-6L1.2 7.9l6.1-.9z"/></symbol>
</svg>
